<?xml version="1.0" encoding="utf-8"?>
<!-- Generator: Adobe Illustrator 26.5.3, SVG Export Plug-In . SVG Version: 6.00 Build 0)  -->
<svg version="1.1" id="圖層_1" xmlns="http://www.w3.org/2000/svg" xmlns:xlink="http://www.w3.org/1999/xlink" x="0px" y="0px"
	 viewBox="0 0 360.9 462.8" style="enable-background:new 0 0 360.9 462.8;" xml:space="preserve">
<style type="text/css">
	.st0{fill:#9B7B2A;}
	.st1{fill:#D63428;}
	.st2{fill:#F2C38B;}
	.st3{opacity:0.1;}
</style>
<path class="st0" d="M1.3,345.1h0.5c0.7,0,1.3,0.6,1.3,1.3v33.2c0,0.7-0.6,1.3-1.3,1.3H1.3c-0.7,0-1.3-0.6-1.3-1.3v-33.2
	C0,345.7,0.6,345.1,1.3,345.1z"/>
<path class="st0" d="M11.9,350h0.5c0.7,0,1.3,0.6,1.3,1.3v33.2c0,0.7-0.6,1.3-1.3,1.3h-0.5c-0.7,0-1.3-0.6-1.3-1.3v-33.2
	C10.5,350.6,11.1,350,11.9,350z"/>
<path class="st0" d="M22.4,354.9h0.5c0.7,0,1.3,0.6,1.3,1.3v33.2c0,0.7-0.6,1.3-1.3,1.3h-0.5c-0.7,0-1.3-0.6-1.3-1.3v-33.2
	C21.1,355.5,21.7,354.9,22.4,354.9z"/>
<path class="st0" d="M32.9,359.9h0.5c0.7,0,1.3,0.6,1.3,1.3v33.2c0,0.7-0.6,1.3-1.3,1.3h-0.5c-0.7,0-1.3-0.6-1.3-1.3v-33.2
	C31.6,360.5,32.2,359.9,32.9,359.9z"/>
<path class="st0" d="M43.5,364.8H44c0.7,0,1.3,0.6,1.3,1.3v33.2c0,0.7-0.6,1.3-1.3,1.3h-0.5c-0.7,0-1.3-0.6-1.3-1.3v-33.2
	C42.2,365.4,42.8,364.8,43.5,364.8z"/>
<path class="st0" d="M54,369.7h0.5c0.7,0,1.3,0.6,1.3,1.3v33.2c0,0.7-0.6,1.3-1.3,1.3H54c-0.7,0-1.3-0.6-1.3-1.3V371
	C52.7,370.3,53.3,369.7,54,369.7z"/>
<path class="st0" d="M64.6,374.6H65c0.7,0,1.3,0.6,1.3,1.3v33.2c0,0.7-0.6,1.3-1.3,1.3h-0.5c-0.7,0-1.3-0.6-1.3-1.3V376
	C63.2,375.2,63.8,374.6,64.6,374.6z"/>
<path class="st0" d="M75.1,379.6h0.5c0.7,0,1.3,0.6,1.3,1.3V414c0,0.7-0.6,1.3-1.3,1.3h-0.5c-0.7,0-1.3-0.6-1.3-1.3v-33.2
	C73.8,380.2,74.4,379.6,75.1,379.6z"/>
<path class="st0" d="M85.6,384.5h0.5c0.7,0,1.3,0.6,1.3,1.3V419c0,0.7-0.6,1.3-1.3,1.3h-0.5c-0.7,0-1.3-0.6-1.3-1.3v-33.2
	C84.3,385.1,84.9,384.5,85.6,384.5z"/>
<path class="st0" d="M96.2,389.4h0.5c0.7,0,1.3,0.6,1.3,1.3v33.2c0,0.7-0.6,1.3-1.3,1.3h-0.5c-0.7,0-1.3-0.6-1.3-1.3v-33.2
	C94.9,390,95.5,389.4,96.2,389.4z"/>
<path class="st0" d="M106.7,394.3h0.5c0.7,0,1.3,0.6,1.3,1.3v33.2c0,0.7-0.6,1.3-1.3,1.3h-0.5c-0.7,0-1.3-0.6-1.3-1.3v-33.2
	C105.4,394.9,106,394.3,106.7,394.3z"/>
<path class="st0" d="M117.3,399.2h0.5c0.7,0,1.3,0.6,1.3,1.3v33.2c0,0.7-0.6,1.3-1.3,1.3h-0.5c-0.7,0-1.3-0.6-1.3-1.3v-33.2
	C115.9,399.8,116.5,399.2,117.3,399.2z"/>
<path class="st0" d="M127.8,404.2h0.5c0.7,0,1.3,0.6,1.3,1.3v33.2c0,0.7-0.6,1.3-1.3,1.3h-0.5c-0.7,0-1.3-0.6-1.3-1.3v-33.2
	C126.5,404.8,127.1,404.2,127.8,404.2z"/>
<path class="st0" d="M138.4,409.1h0.5c0.7,0,1.3,0.6,1.3,1.3v33.2c0,0.7-0.6,1.3-1.3,1.3h-0.5c-0.7,0-1.3-0.6-1.3-1.3v-33.2
	C137,409.7,137.6,409.1,138.4,409.1z"/>
<path class="st0" d="M148.9,414h0.5c0.7,0,1.3,0.6,1.3,1.3v33.2c0,0.7-0.6,1.3-1.3,1.3h-0.5c-0.7,0-1.3-0.6-1.3-1.3v-33.2
	C147.6,414.6,148.2,414,148.9,414z"/>
<path class="st0" d="M159.4,418.9h0.5c0.7,0,1.3,0.6,1.3,1.3v33.2c0,0.7-0.6,1.3-1.3,1.3h-0.5c-0.7,0-1.3-0.6-1.3-1.3v-33.2
	C158.1,419.5,158.7,418.9,159.4,418.9z"/>
<path class="st0" d="M170,423.9h0.5c0.7,0,1.3,0.6,1.3,1.3v33.2c0,0.7-0.6,1.3-1.3,1.3H170c-0.7,0-1.3-0.6-1.3-1.3v-33.2
	C168.6,424.5,169.2,423.9,170,423.9z"/>
<path class="st0" d="M359.1,345.1h0.5c0.7,0,1.3,0.6,1.3,1.3v33.2c0,0.7-0.6,1.3-1.3,1.3h-0.5c-0.7,0-1.3-0.6-1.3-1.3v-33.2
	C357.8,345.7,358.4,345.1,359.1,345.1z"/>
<path class="st0" d="M348.6,350h0.5c0.7,0,1.3,0.6,1.3,1.3v33.2c0,0.7-0.6,1.3-1.3,1.3h-0.5c-0.7,0-1.3-0.6-1.3-1.3v-33.2
	C347.2,350.6,347.8,350,348.6,350z"/>
<path class="st0" d="M338,354.9h0.5c0.7,0,1.3,0.6,1.3,1.3v33.2c0,0.7-0.6,1.3-1.3,1.3H338c-0.7,0-1.3-0.6-1.3-1.3v-33.2
	C336.7,355.5,337.3,354.9,338,354.9z"/>
<path class="st0" d="M327.5,359.9h0.5c0.7,0,1.3,0.6,1.3,1.3v33.2c0,0.7-0.6,1.3-1.3,1.3h-0.5c-0.7,0-1.3-0.6-1.3-1.3v-33.2
	C326.2,360.5,326.8,359.9,327.5,359.9z"/>
<path class="st0" d="M317,364.8h0.5c0.7,0,1.3,0.6,1.3,1.3v33.2c0,0.7-0.6,1.3-1.3,1.3H317c-0.7,0-1.3-0.6-1.3-1.3v-33.2
	C315.6,365.4,316.2,364.8,317,364.8z"/>
<path class="st0" d="M306.4,369.7h0.5c0.7,0,1.3,0.6,1.3,1.3v33.2c0,0.7-0.6,1.3-1.3,1.3h-0.5c-0.7,0-1.3-0.6-1.3-1.3V371
	C305.1,370.3,305.7,369.7,306.4,369.7z"/>
<path class="st0" d="M295.9,374.6h0.5c0.7,0,1.3,0.6,1.3,1.3v33.2c0,0.7-0.6,1.3-1.3,1.3h-0.5c-0.7,0-1.3-0.6-1.3-1.3V376
	C294.5,375.2,295.1,374.6,295.9,374.6z"/>
<path class="st0" d="M285.3,379.6h0.5c0.7,0,1.3,0.6,1.3,1.3V414c0,0.7-0.6,1.3-1.3,1.3h-0.5c-0.7,0-1.3-0.6-1.3-1.3v-33.2
	C284,380.2,284.6,379.6,285.3,379.6z"/>
<path class="st0" d="M274.8,384.5h0.5c0.7,0,1.3,0.6,1.3,1.3V419c0,0.7-0.6,1.3-1.3,1.3h-0.5c-0.7,0-1.3-0.6-1.3-1.3v-33.2
	C273.5,385.1,274.1,384.5,274.8,384.5z"/>
<path class="st0" d="M264.2,389.4h0.5c0.7,0,1.3,0.6,1.3,1.3v33.2c0,0.7-0.6,1.3-1.3,1.3h-0.5c-0.7,0-1.3-0.6-1.3-1.3v-33.2
	C262.9,390,263.5,389.4,264.2,389.4z"/>
<path class="st0" d="M253.7,394.3h0.5c0.7,0,1.3,0.6,1.3,1.3v33.2c0,0.7-0.6,1.3-1.3,1.3h-0.5c-0.7,0-1.3-0.6-1.3-1.3v-33.2
	C252.4,394.9,253,394.3,253.7,394.3z"/>
<path class="st0" d="M243.2,399.2h0.5c0.7,0,1.3,0.6,1.3,1.3v33.2c0,0.7-0.6,1.3-1.3,1.3h-0.5c-0.7,0-1.3-0.6-1.3-1.3v-33.2
	C241.9,399.8,242.4,399.2,243.2,399.2z"/>
<path class="st0" d="M232.6,404.2h0.5c0.7,0,1.3,0.6,1.3,1.3v33.2c0,0.7-0.6,1.3-1.3,1.3h-0.5c-0.7,0-1.3-0.6-1.3-1.3v-33.2
	C231.3,404.8,231.9,404.2,232.6,404.2z"/>
<path class="st0" d="M222.1,409.1h0.5c0.7,0,1.3,0.6,1.3,1.3v33.2c0,0.7-0.6,1.3-1.3,1.3h-0.5c-0.7,0-1.3-0.6-1.3-1.3v-33.2
	C220.8,409.7,221.4,409.1,222.1,409.1z"/>
<path class="st0" d="M211.6,414h0.5c0.7,0,1.3,0.6,1.3,1.3v33.2c0,0.7-0.6,1.3-1.3,1.3h-0.5c-0.7,0-1.3-0.6-1.3-1.3v-33.2
	C210.2,414.6,210.8,414,211.6,414z"/>
<path class="st0" d="M201,418.9h0.5c0.7,0,1.3,0.6,1.3,1.3v33.2c0,0.7-0.6,1.3-1.3,1.3H201c-0.7,0-1.3-0.6-1.3-1.3v-33.2
	C199.7,419.5,200.3,418.9,201,418.9z"/>
<path class="st0" d="M190.5,423.9h0.5c0.7,0,1.3,0.6,1.3,1.3v33.2c0,0.7-0.6,1.3-1.3,1.3h-0.5c-0.7,0-1.3-0.6-1.3-1.3v-33.2
	C189.1,424.5,189.7,423.9,190.5,423.9z"/>
<path class="st0" d="M180.5,427h0.5c0.7,0,1.3,0.6,1.3,1.3v33.2c0,0.7-0.6,1.3-1.3,1.3h-0.5c-0.7,0-1.3-0.6-1.3-1.3v-33.2
	C179.2,427.6,179.8,427,180.5,427z"/>
<polygon class="st1" points="360.9,362.1 180.5,450 0,362.1 0,0 360.9,0 "/>
<polygon class="st2" points="0,343 0,349.2 180.5,437.1 360.9,349.2 360.9,343 180.5,430.9 "/>
<rect x="354.9" y="-0.1" class="st2" width="6" height="347.9"/>
<rect y="-0.1" class="st2" width="6" height="347.9"/>
<polygon class="st3" points="7,28.9 0,28.9 0,362.1 180.5,450 183,448.8 183,28.9 148.1,28.9 "/>
</svg>
